# xmcd CD database file
#
# Track frame offsets:
#	150
#	18305
#	29623
#
# Disc length: 590 seconds
#
# Revision: 0
# Processed by: cddbd v1.5PL3 Copyright (c) Steve Scherf et al.
# Submitted via: CDex 1.50beta8
#
DISCID=1c024c03
DTITLE=pre-school - A SAD SONG
DYEAR=1900
DGENRE=Pop
TTITLE0=A SAD SONG
TTITLE1=THAT'S THE WAY MY DREAMS ALWAYS GO
TTITLE2=Spunky Josh (Live)
EXTD=
EXTT0=
EXTT1=
EXTT2=
PLAYORDER=
